<svg width="25" height="25" viewBox="0 0 31 31" fill="none" xmlns="http://www.w3.org/2000/svg">
<g filter="url(#filter0_d_13_18)">
<path fill-rule="evenodd" clip-rule="evenodd" d="M19.7897 1.28627H23.0563C24.4079 1.28627 25.5042 2.39216 25.5042 3.75645V7.05037C25.5042 8.41362 24.4079 9.52055 23.0563 9.52055H19.7897C18.4372 9.52055 17.3408 8.41362 17.3408 7.05037V3.75645C17.3408 2.39216 18.4372 1.28627 19.7897 1.28627Z" stroke="#F5F5F5" stroke-width="1.5" stroke-linecap="round" stroke-linejoin="round"/>
<path fill-rule="evenodd" clip-rule="evenodd" d="M7.95307 1.28627H11.2186C12.5712 1.28627 13.6676 2.39216 13.6676 3.75645V7.05037C13.6676 8.41362 12.5712 9.52055 11.2186 9.52055H7.95307C6.60053 9.52055 5.50415 8.41362 5.50415 7.05037V3.75645C5.50415 2.39216 6.60053 1.28627 7.95307 1.28627Z" stroke="#F5F5F5" stroke-width="1.5" stroke-linecap="round" stroke-linejoin="round"/>
<path fill-rule="evenodd" clip-rule="evenodd" d="M7.95307 13.052H11.2186C12.5712 13.052 13.6676 14.1579 13.6676 15.5232V18.8161C13.6676 20.1804 12.5712 21.2863 11.2186 21.2863H7.95307C6.60053 21.2863 5.50415 20.1804 5.50415 18.8161V15.5232C5.50415 14.1579 6.60053 13.052 7.95307 13.052Z" stroke="#F5F5F5" stroke-width="1.5" stroke-linecap="round" stroke-linejoin="round"/>
<path fill-rule="evenodd" clip-rule="evenodd" d="M19.7897 13.052H23.0563C24.4079 13.052 25.5042 14.1579 25.5042 15.5232V18.8161C25.5042 20.1804 24.4079 21.2863 23.0563 21.2863H19.7897C18.4372 21.2863 17.3408 20.1804 17.3408 18.8161V15.5232C17.3408 14.1579 18.4372 13.052 19.7897 13.052Z" stroke="#F5F5F5" stroke-width="1.5" stroke-linecap="round" stroke-linejoin="round"/>
</g>
<defs>
<filter id="filter0_d_13_18" x="0.75415" y="0.536266" width="29.5" height="29.5" filterUnits="userSpaceOnUse" color-interpolation-filters="sRGB">
<feFlood flood-opacity="0" result="BackgroundImageFix"/>
<feColorMatrix in="SourceAlpha" type="matrix" values="0 0 0 0 0 0 0 0 0 0 0 0 0 0 0 0 0 0 127 0" result="hardAlpha"/>
<feOffset dy="4"/>
<feGaussianBlur stdDeviation="2"/>
<feColorMatrix type="matrix" values="0 0 0 0 0 0 0 0 0 0 0 0 0 0 0 0 0 0 0.25 0"/>
<feBlend mode="normal" in2="BackgroundImageFix" result="effect1_dropShadow_13_18"/>
<feBlend mode="normal" in="SourceGraphic" in2="effect1_dropShadow_13_18" result="shape"/>
</filter>
</defs>
</svg>
